<?xml version="1.0" encoding="utf-8"?>
<!-- Generator: Adobe Illustrator 16.0.0, SVG Export Plug-In . SVG Version: 6.00 Build 0)  -->
<!DOCTYPE svg PUBLIC "-//W3C//DTD SVG 1.1//EN" "http://www.w3.org/Graphics/SVG/1.1/DTD/svg11.dtd">
<svg version="1.1" id="Layer_1_xA0_Image_1_" xmlns="http://www.w3.org/2000/svg" xmlns:xlink="http://www.w3.org/1999/xlink"
	 x="0px" y="0px" width="1475.525px" height="442px" viewBox="0 0 1475.525 442" enable-background="new 0 0 1475.525 442"
	 xml:space="preserve">
<g>
	<path fill="#01AA59" stroke="#FFFFFF" stroke-miterlimit="10" d="M269.67,193.576c0.611,0.455,1.223,0.911,1.834,1.367
		c-1.353,4.729-2.668,9.469-4.061,14.187c-4.96,16.786-9.579,33.685-15.041,50.306c-3.997,12.163-8.669,24.155-13.845,35.869
		c-7.034,15.925-14.85,31.456-24.947,45.807c-9.833,13.977-21.146,26.431-34.71,36.769c-16.566,12.627-35.366,20.738-55.494,25.464
		c-11.33,2.66-22.97,4.822-34.551,5.332c-9.548,0.419-19.295-1.479-28.813-3.149c-14.576-2.56-27.189-9.255-37.043-20.457
		C10.274,370.602,6.317,353.642,9.73,334.874c1.949-10.715,6.957-20.028,13.05-29.006c10.4-15.324,23.909-26.974,40.002-35.807
		c10.31-5.659,21.398-9.04,32.995-10.838c13.281-2.058,26.403-2.477,39.107,3.083c22.359,9.787,27.703,29.676,24.699,49.46
		c-2.517,16.585-12.801,28.994-26.418,38.402c-15.34,10.599-32.467,15.732-51.146,15.622c-2.359-0.014-4.72,0.198-7.08,0.306
		c-0.06,0.354-0.12,0.709-0.18,1.063c1.078,0.497,2.14,1.385,3.235,1.429c8.747,0.358,17.404,0.034,25.976-2.281
		c12.512-3.382,24.105-8.411,34.491-16.324c7.947-6.053,14.543-13.242,19.314-21.903c5.665-10.286,8.432-21.231,7.134-33.269
		c-1.046-9.703-4.227-18.554-9.753-26.176c-7.599-10.479-18.506-17.056-30.962-20.188c-18.02-4.533-35.779-1.474-53.062,4.151
		c-12.347,4.019-23.77,9.997-34.117,18.074c-11.807,9.216-21.449,20.265-28.016,33.584c-7.46,15.134-10.808,31.215-8.034,48.273
		c2.705,16.633,10.143,30.459,23.435,40.877c12.764,10.005,27.542,14.613,43.507,17.025c12.265,1.854,24.322,1.17,36.25-0.537
		c11.882-1.7,23.627-4.851,35.182-8.224c20.984-6.128,40.138-15.935,57.786-29.046c19.995-14.852,36.25-33.055,49.037-54.08
		c8.792-14.457,16.682-29.745,22.731-45.522c8.953-23.351,16.212-47.372,23.634-71.281c6.749-21.74,12.939-43.661,19.031-65.597
		c5.559-20.012,12.343-39.504,22.909-57.47c6.548-11.134,14.471-21.203,25.119-28.789c5.22-3.718,10.746-7.015,15.844-10.884
		c1.339-1.017,2.678-3.937,2.139-5.148c-1.359-3.061-3.926-0.835-5.304,0.259c-7.375,5.858-15.152,11.4-21.62,18.169
		c-8.323,8.712-16.021,18.133-23.105,27.889c-8.613,11.859-17.015,23.984-24.229,36.719c-10.006,17.664-18.875,35.976-28.13,54.061
		c-11.191,21.868-23.782,42.897-38.325,62.685c-7.718,10.499-16.285,20.45-28.026,26.713c-4.944,2.638-10.437,4.465-15.882,5.884
		c-4.705,1.227-9.926-1.588-10.688-5.491c-0.722-3.699-1.328-7.826-0.42-11.362c2.682-10.438,5.684-20.841,9.39-30.954
		c6.71-18.308,14.18-36.337,21.021-54.599c4.014-10.709,7.414-21.79,6.746-33.326c-0.448-7.729-1.896-15.625-4.354-22.96
		c-3.843-11.476-11.363-20.32-22.624-25.604c-13.617-6.391-27.588-5.21-41.215-0.94c-19.221,6.022-36.626,15.733-52.015,28.86
		c-18.493,15.779-33.727,33.956-41.39,57.493c-4.025,12.36-5.069,24.823,0.774,37.008c5.112,10.661,14.304,15.917,25.487,17.197
		c9.084,1.04,18.057-0.213,27.031-3.054c21.703-6.87,37.086-20.936,46.866-40.812c9.403-19.108,13.906-39.635,12.278-61.119
		c-0.361-4.778-1.781-9.476-2.713-14.21c-0.383,0.068-0.765,0.137-1.148,0.206c-0.793,7.325-1.548,14.654-2.389,21.975
		c-1.343,11.676-4.149,23.041-9.176,33.634c-9.529,20.086-23.053,36.876-43.074,47.371c-10.866,5.695-22.192,9.828-35.073,6.532
		c-9.037-2.312-14.172-8.003-16.971-16.288c-3.93-11.629-1.352-22.947,2.759-33.869c8.303-22.063,23.457-39.235,41.508-53.576
		c16.8-13.348,35.377-23.595,57.229-27.145c8.597-1.396,16.802-1.608,24.963,0.684c5.631,1.581,10.746,4.509,14.261,9.657
		c7.786,11.409,7.56,23.84,3.72,36.153c-3.802,12.195-8.742,24.05-13.485,35.934c-4.017,10.067-8.871,19.813-12.618,29.973
		c-4.484,12.163-8.103,24.572-9.269,37.67c-0.993,11.158,0.141,21.688,5.765,31.443c3.149,5.463,12.021,10.398,16.586,8.893
		c5.903-1.945,12.335-3.672,17.111-7.348c8.782-6.759,17.002-14.422,24.585-22.522c12.963-13.847,23.546-29.577,33.797-45.507
		C266.948,195.081,268.496,194.449,269.67,193.576z"/>
	<path fill="#01AA59" d="M269.67,193.576c-1.174,0.873-2.722,1.505-3.463,2.656c-10.251,15.93-19.894,34.837-32.069,49.38
		c-7.78,9.293-15.312,16.684-25.973,21.781c-5.438,2.6-9.113,4.283-17.451,4.216c-8.25-0.388-13.437-3.43-16.586-8.893
		c-5.624-9.756-6.758-20.285-5.765-31.443c1.166-13.098,4.784-25.507,9.269-37.67c3.747-10.16,8.602-19.905,12.618-29.973
		c4.743-11.884,9.684-23.739,13.485-35.934c3.84-12.313,4.066-24.744-3.72-36.153c-3.515-5.148-8.63-8.076-14.261-9.657
		c-8.161-2.292-16.366-2.081-24.963-0.684c-21.852,3.55-40.429,13.797-57.229,27.145c-18.051,14.341-33.205,31.514-41.508,53.576
		c-4.11,10.922-6.688,22.24-2.759,33.869c2.799,8.284,7.934,13.976,16.971,16.288c12.881,3.296,24.207-0.836,35.073-6.532
		c20.021-10.495,33.545-27.285,43.074-47.371c5.026-10.593,7.833-21.958,9.176-33.634c0.841-7.32,1.596-14.65,2.389-21.975
		c0.384-0.069,0.766-0.138,1.148-0.206c0.932,4.734,2.352,9.433,2.713,14.21c1.628,21.483-2.875,42.01-12.278,61.119
		c-9.78,19.876-25.163,33.942-46.866,40.812c-8.975,2.841-17.947,4.094-27.031,3.054c-11.184-1.279-20.375-6.536-25.487-17.197
		c-5.844-12.185-4.8-24.648-0.774-37.008c7.663-23.537,22.896-41.714,41.39-57.493c15.389-13.127,32.794-22.838,52.015-28.86
		c13.627-4.27,27.598-5.451,41.215,0.94c11.261,5.284,18.781,14.128,22.624,25.604c2.457,7.334,3.905,15.231,4.354,22.96
		c0.668,11.536-2.732,22.616-6.746,33.326c-6.842,18.262-14.312,36.291-21.021,54.599c-3.706,10.113-6.708,20.517-9.39,30.954
		c-0.908,3.536-1.291,7.622,0.42,11.362c1.654,3.616,5.982,6.718,10.688,5.491c5.445-1.419,10.384-1.577,15.882-5.884
		c11.741-6.263,20.308-16.214,28.026-26.713c14.543-19.788,27.134-40.817,38.325-62.685c9.255-18.085,18.124-36.397,28.13-54.061
		c7.214-12.734,15.615-24.859,24.229-36.719c7.085-9.756,14.782-19.177,23.105-27.889c6.468-6.769,14.245-12.311,21.62-18.169
		c1.378-1.094,3.944-3.32,5.304-0.259c0.539,1.211-0.8,4.132-2.139,5.148c-5.098,3.869-10.624,7.166-15.844,10.884
		c-10.648,7.585-18.571,17.655-25.119,28.789c-10.566,17.965-17.351,37.458-22.909,57.47c-6.092,21.936-12.282,43.857-19.031,65.597
		c-7.422,23.909-14.681,47.93-23.634,71.281c-6.05,15.777-13.939,31.065-22.731,45.522c-12.787,21.025-29.042,39.229-49.037,54.08
		c-17.648,13.111-36.802,22.918-57.786,29.046c-11.555,3.373-23.3,6.523-35.182,8.224c-11.928,1.707-23.985,2.392-36.25,0.537
		c-15.965-2.412-30.743-7.021-43.507-17.025C11.11,382.99,3.672,369.164,0.967,352.531c-2.773-17.059,0.574-33.14,8.034-48.273
		c6.566-13.319,16.209-24.368,28.016-33.584c10.348-8.077,21.771-14.056,34.117-18.074c17.282-5.625,35.042-8.685,53.062-4.151
		c12.456,3.132,23.363,9.708,30.962,20.188c5.526,7.622,8.707,16.473,9.753,26.176c1.298,12.037-1.469,22.982-7.134,33.269
		c-4.771,8.661-11.367,15.851-19.314,21.903c-10.386,7.913-21.979,12.942-34.491,16.324c-8.571,2.315-17.229,2.64-25.976,2.281
		c-1.096-0.044-2.157-0.932-3.235-1.429c0.06-0.354,0.12-0.709,0.18-1.063c2.36-0.107,4.721-0.319,7.08-0.306
		c18.679,0.11,35.806-5.023,51.146-15.622c13.617-9.408,23.901-21.817,26.418-38.402c3.004-19.784-2.34-39.673-24.699-49.46
		c-12.704-5.56-25.826-5.141-39.107-3.083c-11.597,1.798-22.686,5.179-32.995,10.838c-16.093,8.833-29.602,20.482-40.002,35.807
		c-6.093,8.978-11.101,18.291-13.05,29.006C6.317,353.642,10.274,370.602,23,385.068c9.854,11.202,22.467,17.897,37.043,20.457
		c9.518,1.671,19.265,3.568,28.813,3.149c11.581-0.51,23.221-2.672,34.551-5.332c20.128-4.726,38.928-12.837,55.494-25.464
		c13.563-10.338,24.877-22.792,34.71-36.769c10.097-14.351,17.913-29.882,24.947-45.807c5.176-11.714,9.848-23.706,13.845-35.869
		c5.462-16.621,10.081-33.52,15.041-50.306c1.393-4.717,2.708-9.457,4.061-14.187C270.893,194.487,270.281,194.031,269.67,193.576z"
		/>
</g>
<g>
	<g>
		<path d="M353.439,167.6c0-18.051,0-21.333-0.299-25.025c-0.297-3.966-1.041-5.88-5.354-6.428
			c-1.041-0.137-3.271-0.273-4.461-0.273c-0.445,0-1.041-0.547-1.041-0.957c0-0.684,0.596-0.957,2.082-0.957
			c5.949,0,14.426,0.273,15.168,0.273c0.893,0,28.256,0.137,31.23,0c2.527-0.137,4.906-0.547,5.947-0.684
			c0.596-0.137,1.191-0.547,1.785-0.547c0.447,0,0.596,0.547,0.596,1.094c0,0.82-0.744,2.188-1.041,5.47
			c-0.148,1.095-0.447,6.291-0.744,7.658c-0.148,0.547-0.596,1.23-1.189,1.23c-0.744,0-1.041-0.547-1.041-1.504
			c0-0.82-0.148-2.735-0.744-4.103c-0.893-1.914-2.23-2.735-9.369-3.556c-2.23-0.273-17.398-0.41-18.885-0.41
			c-0.596,0-0.744,0.41-0.744,1.23v31.59c0,0.82,0,1.23,0.744,1.23c1.635,0,18.885,0,21.859-0.273
			c3.123-0.273,5.057-0.41,6.395-1.642c0.893-0.82,1.488-1.504,1.934-1.504s0.744,0.273,0.744,0.957s-0.744,2.599-1.041,6.428
			c-0.299,2.324-0.596,6.7-0.596,7.521c0,0.957-0.297,2.188-1.189,2.188c-0.594,0-0.893-0.41-0.893-1.094
			c0-1.094,0-2.325-0.594-3.829c-0.447-1.641-1.637-3.009-6.693-3.556c-3.568-0.41-17.547-0.547-19.777-0.547
			c-0.744,0-0.893,0.41-0.893,0.82v9.709c0,3.966-0.148,17.504,0,19.829c0.297,7.795,2.676,9.299,15.615,9.299
			c3.42,0,9.666,0,13.086-1.23c3.42-1.368,5.205-3.419,5.949-8.068c0.297-1.367,0.594-1.778,1.338-1.778s0.893,0.958,0.893,1.778
			s-1.041,8.752-1.785,11.213c-0.893,3.009-2.23,3.009-7.287,3.009c-9.814,0-17.398-0.273-22.752-0.41
			c-5.504-0.273-8.924-0.273-10.857-0.273c-0.297,0-2.824,0-5.65,0.137c-2.527,0.137-5.502,0.273-7.584,0.273
			c-1.338,0-2.082-0.273-2.082-0.957c0-0.41,0.297-0.957,1.041-0.957c1.189,0,2.824-0.41,4.016-0.547
			c2.527-0.411,2.824-2.735,3.42-6.154c0.744-4.786,0.744-13.948,0.744-25.162V167.6z"/>
		<path d="M511.788,208.68c0.395,3.622,1.182,9.177,5.91,10.625c3.281,0.967,6.303,0.967,7.484,0.967c0.525,0,0.92,0.241,0.92,0.724
			c0,0.604-1.051,0.967-2.365,0.967c-2.625,0-15.494-0.121-19.697-0.483c-2.758-0.241-3.283-0.604-3.283-1.087
			c0-0.362,0.264-0.725,0.789-0.845c0.656-0.121,0.787-1.69,0.525-3.622l-5.516-52.161h-0.264l-27.838,52.402
			c-2.365,4.468-3.021,5.434-4.072,5.434c-1.049,0-1.707-0.966-3.939-4.709c-3.02-5.071-10.637-18.232-13.525-23.787
			c-3.414-6.52-12.736-23.786-14.707-28.012h-0.525l-4.465,46.365c-0.131,1.569-0.131,3.501-0.131,5.191
			c0,1.57,1.051,2.536,2.758,2.898c1.969,0.482,3.676,0.604,4.465,0.604c0.393,0,0.918,0.362,0.918,0.725
			c0,0.725-0.787,0.966-2.1,0.966c-4.334,0-9.85-0.362-10.77-0.362c-1.049,0-6.564,0.362-9.717,0.362
			c-1.182,0-1.969-0.241-1.969-0.966c0-0.362,0.523-0.725,1.182-0.725c0.918,0,1.707-0.121,3.414-0.362
			c3.809-0.604,3.939-4.347,4.465-8.211l8.404-67.012c0.131-1.087,0.656-1.812,1.313-1.812c0.787,0,1.707,0.362,2.363,1.57
			l34.932,63.752l33.617-63.632c0.525-0.966,1.051-1.69,1.838-1.69s1.443,0.846,1.707,2.777L511.788,208.68z"/>
		<path d="M626.56,208.68c0.395,3.622,1.182,9.177,5.91,10.625c3.281,0.967,6.303,0.967,7.484,0.967c0.525,0,0.92,0.241,0.92,0.724
			c0,0.604-1.051,0.967-2.365,0.967c-2.625,0-15.494-0.121-19.697-0.483c-2.758-0.241-3.283-0.604-3.283-1.087
			c0-0.362,0.264-0.725,0.789-0.845c0.656-0.121,0.787-1.69,0.525-3.622l-5.516-52.161h-0.264l-27.838,52.402
			c-2.365,4.468-3.021,5.434-4.072,5.434c-1.049,0-1.707-0.966-3.939-4.709c-3.02-5.071-10.637-18.232-13.525-23.787
			c-3.414-6.52-12.736-23.786-14.707-28.012h-0.525l-4.465,46.365c-0.131,1.569-0.131,3.501-0.131,5.191
			c0,1.57,1.051,2.536,2.758,2.898c1.969,0.482,3.676,0.604,4.465,0.604c0.393,0,0.918,0.362,0.918,0.725
			c0,0.725-0.787,0.966-2.1,0.966c-4.334,0-9.85-0.362-10.77-0.362c-1.049,0-6.564,0.362-9.717,0.362
			c-1.182,0-1.969-0.241-1.969-0.966c0-0.362,0.523-0.725,1.182-0.725c0.918,0,1.707-0.121,3.414-0.362
			c3.809-0.604,3.939-4.347,4.465-8.211l8.404-67.012c0.131-1.087,0.656-1.812,1.313-1.812c0.787,0,1.707,0.362,2.363,1.57
			l34.932,63.752l33.617-63.632c0.525-0.966,1.051-1.69,1.838-1.69s1.443,0.846,1.707,2.777L626.56,208.68z"/>
		<path d="M674.751,146.256c1.445-3.381,1.971-3.984,2.758-3.984c1.184,0,1.576,1.448,2.758,3.743
			c2.102,4.347,20.617,46.728,27.709,62.303c4.201,9.177,7.354,10.505,9.848,11.229c1.707,0.482,3.414,0.604,4.598,0.604
			c0.656,0,1.443,0.241,1.443,0.845c0,0.604-1.313,0.846-2.627,0.846c-1.707,0-10.242,0-18.252-0.241
			c-2.232-0.121-4.07-0.121-4.07-0.725c0-0.483,0.262-0.483,0.787-0.725c0.656-0.241,1.838-1.087,1.051-2.777l-10.375-23.545
			c-0.262-0.482-0.393-0.604-1.051-0.604h-26.656c-0.525,0-0.92,0.241-1.182,0.846l-6.566,16.421
			c-1.051,2.535-1.707,5.071-1.707,6.882c0,2.053,1.971,2.777,3.939,2.777h1.051c0.92,0,1.182,0.362,1.182,0.845
			c0,0.604-0.656,0.846-1.707,0.846c-2.758,0-9.061-0.362-10.373-0.362c-1.184,0-6.961,0.362-11.688,0.362
			c-1.445,0-2.232-0.241-2.232-0.846c0-0.482,0.525-0.845,1.051-0.845c0.787,0,2.494-0.121,3.414-0.241
			c5.252-0.604,7.484-4.227,9.717-9.418L674.751,146.256z M687.62,188.999c0.525,0,0.525-0.242,0.395-0.725l-11.424-28.133
			c-0.656-1.57-1.314-1.57-1.971,0l-10.768,28.133c-0.131,0.482,0,0.725,0.395,0.725H687.62z"/>
		<path d="M739.624,195.156c0-5.554-0.787-7.606-2.494-10.504c-0.92-1.57-16.547-24.391-20.486-29.824
			c-2.758-3.863-5.516-6.157-7.617-7.485c-1.707-0.966-3.939-1.449-4.857-1.449c-0.656,0-1.182-0.483-1.182-0.966
			c0-0.483,0.393-0.725,1.443-0.725c2.232,0,10.9,0.241,11.426,0.241c0.787,0,5.514-0.241,9.979-0.241
			c1.314,0,1.576,0.241,1.576,0.725c0,0.362-0.787,0.725-1.838,1.087c-0.92,0.362-1.445,0.845-1.445,1.69
			c0,1.448,0.789,2.656,1.576,3.984l21.012,31.996c2.363-4.347,16.809-26.321,18.908-29.702c1.445-2.294,1.971-3.984,1.971-5.313
			c0-1.449-0.525-2.294-1.838-2.656c-1.051-0.242-1.707-0.725-1.707-1.208c0-0.362,0.656-0.604,1.838-0.604
			c3.02,0,7.092,0.241,8.01,0.241c0.789,0,9.061-0.241,11.293-0.241c0.789,0,1.445,0.241,1.445,0.604
			c0,0.483-0.525,1.087-1.445,1.087c-1.313,0-3.545,0.362-5.383,1.328c-2.232,1.207-3.283,2.294-5.779,5.071
			c-3.807,4.105-20.09,28.254-22.455,32.601c-1.969,3.622-1.443,6.882-1.443,10.263v8.814c0,1.69,0,6.037,0.393,10.264
			c0.264,3.019,1.051,4.95,4.465,5.433c1.576,0.242,4.203,0.483,5.254,0.483c0.656,0,0.918,0.483,0.918,0.845
			c0,0.483-0.656,0.846-1.838,0.846c-6.434,0-13.92-0.362-14.576-0.362c-0.525,0-7.879,0.362-11.293,0.362
			c-1.313,0-1.838-0.241-1.838-0.846c0-0.361,0.262-0.845,0.918-0.845c1.051,0,2.365-0.241,3.414-0.483
			c2.365-0.482,3.152-2.414,3.416-5.433c0.262-4.227,0.262-8.573,0.262-10.264V195.156z"/>
		<path d="M850.284,182.505c0,20.103,0.596,28.854,3.271,31.315c2.379,2.188,6.246,3.146,17.846,3.146
			c7.883,0,14.426-0.137,17.994-4.103c1.934-2.188,3.42-5.606,3.867-8.205c0.148-1.094,0.445-1.777,1.338-1.777
			c0.744,0,0.893,0.547,0.893,2.051c0,1.505-1.041,9.709-2.23,13.675c-1.041,3.146-1.488,3.692-9.369,3.692
			c-10.707,0-18.441-0.273-24.686-0.41c-6.246-0.273-10.857-0.41-15.17-0.41c-0.594,0-3.123,0.137-6.098,0.137
			c-2.973,0.137-6.244,0.273-8.477,0.273c-1.635,0-2.379-0.273-2.379-1.094c0-0.41,0.297-0.82,1.189-0.82
			c1.34,0,3.123-0.273,4.461-0.547c2.975-0.548,3.719-3.556,4.314-7.521c0.742-5.744,0.742-16.547,0.742-29.675v-24.067
			c0-21.333,0-25.162-0.297-29.538c-0.297-4.649-1.486-6.838-6.395-7.795c-1.189-0.273-3.719-0.41-5.057-0.41
			c-0.594,0-1.189-0.273-1.189-0.82c0-0.82,0.744-1.094,2.379-1.094c6.693,0,16.061,0.41,16.805,0.41s11.6-0.41,16.061-0.41
			c1.637,0,2.381,0.273,2.381,1.094c0,0.547-0.596,0.82-1.191,0.82c-1.039,0-3.121,0.137-4.906,0.41
			c-4.313,0.684-5.502,3.009-5.801,7.795c-0.297,4.376-0.297,8.205-0.297,29.538V182.505z"/>
		<path d="M944.979,142.754c26,0,45.697,14.61,45.697,38.518c0,22.94-18.516,41.897-46.354,41.897
			c-31.648,0-45.174-21.854-45.174-40.328C899.149,166.299,913.069,142.754,944.979,142.754z M947.606,218.943
			c10.373,0,31.252-5.071,31.252-34.774c0-24.632-16.283-37.551-34.535-37.551c-19.305,0-33.225,11.108-33.225,33.445
			C911.099,203.971,926.726,218.943,947.606,218.943z"/>
		<path d="M1066.187,195.64c0-8.331-0.264-9.539-4.99-10.384c-0.92-0.121-2.889-0.241-3.939-0.241c-0.395,0-0.92-0.483-0.92-0.846
			c0-0.725,0.525-0.845,1.838-0.845c5.254,0,13.002,0.241,13.658,0.241c0.525,0,7.748-0.241,11.293-0.241
			c1.313,0,1.838,0.12,1.838,0.845c0,0.362-0.525,0.846-0.92,0.846c-0.787,0-1.574,0-2.889,0.241
			c-3.15,0.482-4.07,2.053-4.332,5.675c-0.133,3.26-0.133,6.278-0.133,10.625v11.471c0,4.709-0.131,4.83-1.574,5.555
			c-7.355,3.501-17.859,4.588-24.557,4.588c-8.799,0-25.213-0.966-38.082-10.987c-7.092-5.434-13.789-16.421-13.789-29.22
			c0-16.421,9.061-28.013,19.305-33.688c10.373-5.796,21.93-6.521,30.727-6.521c7.355,0,15.496,1.208,17.729,1.69
			c2.363,0.483,6.436,1.087,9.324,1.087c1.182,0,1.443,0.483,1.443,0.966c0,1.449-0.656,4.227-0.656,14.489
			c0,1.69-0.525,2.174-1.313,2.174c-0.656,0-0.789-0.604-0.789-1.57c-0.131-1.328-0.787-4.347-2.625-6.762
			c-2.889-3.863-11.688-7.969-26.658-7.969c-6.959,0-15.363,0.483-24.162,6.641c-6.697,4.709-11.424,13.886-11.424,25.839
			c0,14.489,8.141,24.873,12.211,28.375c9.193,7.849,18.91,10.746,29.547,10.746c4.07,0,9.455-0.362,12.475-1.932
			c1.445-0.725,2.365-1.208,2.365-3.14V195.64z"/>
		<path d="M1115.429,192.018c0,9.9,0,17.99,0.525,22.217c0.395,3.019,0.789,4.95,4.203,5.433c1.707,0.242,4.201,0.483,5.252,0.483
			c0.656,0,0.92,0.483,0.92,0.845c0,0.483-0.525,0.846-1.838,0.846c-6.436,0-13.92-0.362-14.445-0.362
			c-0.656,0-7.879,0.362-11.426,0.362c-1.182,0-1.838-0.241-1.838-0.846c0-0.361,0.264-0.845,0.92-0.845
			c1.051,0,2.494-0.241,3.545-0.483c2.232-0.482,2.627-2.414,3.02-5.433c0.525-4.227,0.658-12.316,0.658-22.217v-18.111
			c0-15.938,0-18.836-0.264-22.097c-0.262-3.501-1.182-5.071-3.676-5.554c-1.314-0.241-2.758-0.362-3.547-0.362
			c-0.525,0-0.918-0.483-0.918-0.846c0-0.604,0.525-0.845,1.838-0.845c3.809,0,11.031,0.241,11.688,0.241
			c0.525,0,8.01-0.241,11.555-0.241c1.314,0,1.84,0.241,1.84,0.845c0,0.362-0.525,0.846-0.92,0.846c-0.787,0-1.576,0-2.889,0.241
			c-3.152,0.604-3.809,2.053-4.07,5.675c-0.133,3.261-0.133,6.158-0.133,22.097V192.018z"/>
		<path d="M1139.722,220.392c-1.576-0.725-1.707-1.087-1.707-3.863c0-5.071,0.525-9.177,0.656-10.867c0-1.087,0.264-1.69,0.92-1.69
			s1.051,0.362,1.051,1.208c0,0.845,0,2.294,0.395,3.742c1.838,7.486,10.504,10.143,18.252,10.143
			c11.426,0,17.334-5.916,17.334-13.644c0-7.365-4.334-10.867-14.576-17.87l-5.252-3.622c-12.477-8.573-16.547-14.852-16.547-21.976
			c0-12.074,10.375-19.318,25.607-19.318c4.596,0,9.191,0.604,11.949,1.207c2.232,0.483,3.152,0.483,4.07,0.483
			c0.92,0,1.184,0.12,1.184,0.724c0,0.483-0.525,3.864-0.525,10.867c0,1.569-0.133,2.294-0.92,2.294s-0.92-0.482-1.051-1.328
			c-0.131-1.207-1.051-3.984-1.707-5.071c-0.787-1.207-4.596-5.071-14.971-5.071c-8.404,0-15.363,3.864-15.363,11.108
			c0,6.521,3.545,10.264,14.971,17.388l3.283,2.053c14.051,8.813,18.908,15.938,18.908,24.752c0,6.037-2.494,12.557-10.768,17.508
			c-4.859,2.897-12.082,3.622-18.385,3.622C1151.147,223.169,1144.45,222.444,1139.722,220.392z"/>
		<path d="M1236.896,192.018c0,9.9,0,17.99,0.525,22.217c0.395,3.019,0.92,4.95,4.465,5.433c1.576,0.242,4.201,0.483,5.252,0.483
			c0.789,0,0.92,0.483,0.92,0.845c0,0.483-0.525,0.846-1.838,0.846c-6.305,0-13.658-0.362-14.314-0.362
			c-0.525,0-8.535,0.362-11.949,0.362c-1.314,0-1.838-0.241-1.838-0.846c0-0.361,0.262-0.724,0.918-0.724
			c1.051,0,2.363-0.242,3.414-0.483c2.365-0.483,3.021-2.535,3.414-5.554c0.525-4.227,0.525-12.316,0.525-22.217v-43.105
			l-16.676,0.241c-7.223,0.121-9.98,0.846-11.688,3.261c-1.314,1.811-1.445,2.535-1.84,3.26c-0.262,0.845-0.656,0.966-1.182,0.966
			c-0.262,0-0.787-0.241-0.787-0.845c0-1.087,2.232-10.264,2.494-11.108c0.133-0.604,0.789-1.933,1.182-1.933
			c0.789,0,1.971,0.846,5.123,1.208c3.281,0.362,7.746,0.482,9.061,0.482h43.598c3.807,0,6.434-0.241,8.271-0.482
			c1.707-0.242,2.758-0.483,3.283-0.483s0.525,0.604,0.525,1.208c0,3.139-0.395,10.504-0.395,11.712
			c0,0.845-0.523,1.328-1.049,1.328s-0.789-0.362-0.92-1.812l-0.131-1.087c-0.395-3.139-2.889-5.433-13.92-5.675l-14.445-0.241
			V192.018z"/>
		<path d="M1295.724,192.018c0,9.9,0,17.99,0.525,22.217c0.395,3.019,0.789,4.95,4.203,5.433c1.707,0.242,4.201,0.483,5.252,0.483
			c0.656,0,0.92,0.483,0.92,0.845c0,0.483-0.525,0.846-1.838,0.846c-6.436,0-13.92-0.362-14.445-0.362
			c-0.656,0-7.879,0.362-11.426,0.362c-1.182,0-1.838-0.241-1.838-0.846c0-0.361,0.264-0.845,0.92-0.845
			c1.051,0,2.494-0.241,3.545-0.483c2.232-0.482,2.627-2.414,3.02-5.433c0.525-4.227,0.658-12.316,0.658-22.217v-18.111
			c0-15.938,0-18.836-0.264-22.097c-0.262-3.501-1.182-5.071-3.676-5.554c-1.314-0.241-2.758-0.362-3.547-0.362
			c-0.525,0-0.918-0.483-0.918-0.846c0-0.604,0.525-0.845,1.838-0.845c3.809,0,11.031,0.241,11.688,0.241
			c0.525,0,8.01-0.241,11.555-0.241c1.314,0,1.84,0.241,1.84,0.845c0,0.362-0.525,0.846-0.92,0.846c-0.787,0-1.576,0-2.889,0.241
			c-3.152,0.604-3.809,2.053-4.07,5.675c-0.133,3.261-0.133,6.158-0.133,22.097V192.018z"/>
		<path d="M1328.817,212.182c-11.293-8.936-14.051-20.647-14.051-30.428c0-6.882,2.758-18.836,13-28.012
			c6.959-6.158,17.465-10.988,35.193-10.988c4.596,0,11.162,0.362,16.809,1.208c4.332,0.725,8.01,1.448,11.818,1.569
			c1.182,0,1.443,0.483,1.443,1.087c0,0.845-0.262,2.053-0.525,5.796c-0.131,3.381-0.131,9.056-0.262,10.504
			c-0.131,1.57-0.656,2.174-1.313,2.174c-0.789,0-0.92-0.725-0.92-2.174c0-3.984-1.838-8.09-4.859-10.263
			c-4.07-3.14-12.475-5.675-22.717-5.675c-14.84,0-21.93,3.622-26.002,7.124c-8.535,7.244-10.373,16.421-10.373,26.805
			c0,19.681,16.939,37.188,41.627,37.188c8.668,0,14.445-0.604,19.041-4.83c2.496-2.294,4.07-6.641,4.465-8.572
			c0.264-1.087,0.395-1.449,1.182-1.449c0.525,0,1.051,0.725,1.051,1.449s-1.576,9.659-2.758,13.161
			c-0.656,1.932-0.92,2.294-2.889,3.019c-4.727,1.69-13.395,2.294-20.879,2.294C1349.565,223.169,1337.878,219.426,1328.817,212.182
			z"/>
		<path d="M1404.587,220.392c-1.576-0.725-1.707-1.087-1.707-3.863c0-5.071,0.525-9.177,0.656-10.867c0-1.087,0.262-1.69,0.918-1.69
			c0.658,0,1.051,0.362,1.051,1.208c0,0.845,0,2.294,0.395,3.742c1.838,7.486,10.506,10.143,18.254,10.143
			c11.424,0,17.334-5.916,17.334-13.644c0-7.365-4.334-10.867-14.576-17.87l-5.254-3.622c-12.475-8.573-16.545-14.852-16.545-21.976
			c0-12.074,10.373-19.318,25.605-19.318c4.598,0,9.193,0.604,11.951,1.207c2.232,0.483,3.15,0.483,4.07,0.483
			s1.182,0.12,1.182,0.724c0,0.483-0.525,3.864-0.525,10.867c0,1.569-0.131,2.294-0.92,2.294c-0.787,0-0.918-0.482-1.049-1.328
			c-0.133-1.207-1.051-3.984-1.707-5.071c-0.789-1.207-4.598-5.071-14.971-5.071c-8.404,0-15.365,3.864-15.365,11.108
			c0,6.521,3.547,10.264,14.971,17.388l3.283,2.053c14.051,8.813,18.91,15.938,18.91,24.752c0,6.037-2.496,12.557-10.768,17.508
			c-4.859,2.897-12.082,3.622-18.385,3.622C1416.011,223.169,1409.313,222.444,1404.587,220.392z"/>
	</g>
	<g>
		<path d="M580.007,322.392c0.232,0.29,0.406,0.464,0.406,0.696c0,0.231-0.174,0.405-0.406,0.405c-0.116,0-0.29-0.115-0.522-0.29
			c-4.523-3.363-12.063-12.354-12.063-24.649c0-12.354,8.41-22.503,12.006-25.055c0.232-0.174,0.464-0.349,0.638-0.349
			c0.232,0,0.406,0.232,0.406,0.464c0,0.175-0.174,0.406-0.406,0.639c-2.783,2.784-8.293,11.773-8.293,23.547
			C571.771,309.748,575.193,316.649,580.007,322.392z"/>
		<path d="M595.435,302.15c0,4.756,0,8.642,0.231,10.672c0.175,1.449,0.349,2.378,1.856,2.609c0.754,0.116,1.855,0.232,2.319,0.232
			c0.29,0,0.406,0.231,0.406,0.405c0,0.232-0.231,0.406-0.812,0.406c-2.842,0-6.148-0.174-6.38-0.174
			c-0.29,0-3.48,0.174-5.046,0.174c-0.522,0-0.813-0.116-0.813-0.406c0-0.174,0.116-0.405,0.406-0.405
			c0.464,0,1.102-0.116,1.566-0.232c0.985-0.231,1.159-1.16,1.334-2.609c0.231-2.03,0.29-5.916,0.29-10.672v-8.7
			c0-7.655,0-9.048-0.116-10.613c-0.116-1.683-0.522-2.437-1.624-2.668c-0.58-0.116-1.218-0.175-1.566-0.175
			c-0.231,0-0.405-0.231-0.405-0.405c0-0.29,0.231-0.406,0.812-0.406c1.682,0,4.872,0.116,5.162,0.116
			c0.231,0,3.538-0.116,5.104-0.116c0.58,0,0.813,0.116,0.813,0.406c0,0.174-0.232,0.405-0.406,0.405c-0.348,0-0.696,0-1.276,0.116
			c-1.392,0.29-1.682,0.986-1.798,2.727c-0.058,1.565-0.058,2.958-0.058,10.613V302.15z"/>
		<path d="M611.442,309.748c0.116,4.06,0.58,5.277,1.972,5.626c0.929,0.231,2.088,0.29,2.552,0.29c0.232,0,0.406,0.174,0.406,0.405
			c0,0.29-0.348,0.406-0.928,0.406c-2.9,0-4.93-0.174-5.394-0.174c-0.465,0-2.61,0.174-4.931,0.174
			c-0.521,0-0.812-0.058-0.812-0.406c0-0.231,0.174-0.405,0.406-0.405c0.405,0,1.334-0.059,2.088-0.29
			c1.275-0.349,1.45-1.683,1.45-6.148V280.98c0-1.972,0.289-2.494,0.695-2.494c0.58,0,1.45,0.986,1.972,1.508
			c0.813,0.813,8.236,8.7,16.124,16.82c5.046,5.22,10.498,11.077,12.063,12.701l-0.521-24.707c-0.059-3.19-0.349-4.292-1.914-4.582
			c-0.928-0.174-2.088-0.232-2.494-0.232c-0.348,0-0.406-0.289-0.406-0.464c0-0.29,0.406-0.348,0.986-0.348
			c2.32,0,4.756,0.116,5.336,0.116s2.262-0.116,4.35-0.116c0.522,0,0.929,0.058,0.929,0.348c0,0.175-0.232,0.464-0.58,0.464
			c-0.232,0-0.639,0-1.219,0.116c-1.682,0.349-1.798,1.334-1.798,4.292l-0.115,28.884c0,3.248-0.059,3.538-0.406,3.538
			c-0.522,0-1.044-0.406-3.886-3.017c-0.522-0.464-7.889-7.714-13.282-13.34c-5.916-6.205-11.657-12.237-13.224-13.978
			L611.442,309.748z"/>
		<path d="M653.551,293.45c0-7.655,0-9.048-0.116-10.613c-0.116-1.683-0.406-2.494-2.088-2.727c-0.406-0.058-1.276-0.116-1.74-0.116
			c-0.174,0-0.406-0.231-0.406-0.405c0-0.29,0.232-0.406,0.813-0.406c2.319,0,5.626,0.116,5.916,0.116
			c0.579,0,3.827-0.116,6.844-0.116c5.104,0,14.441-0.464,20.474,5.626c2.552,2.552,4.987,6.67,4.987,12.527
			c0,6.206-2.668,10.962-5.51,13.862c-2.204,2.262-6.786,5.684-15.485,5.684c-2.204,0-4.93-0.174-7.134-0.29
			c-2.204-0.174-3.944-0.29-4.176-0.29c-0.116,0-1.044,0.058-2.089,0.058c-1.044,0.059-2.262,0.116-3.073,0.116
			c-0.522,0-0.813-0.116-0.813-0.406c0-0.174,0.116-0.405,0.406-0.405c0.464,0,1.102-0.116,1.566-0.232
			c0.985-0.231,1.102-1.16,1.334-2.609c0.29-2.03,0.29-5.916,0.29-10.672V293.45z M658.19,298.786c0,5.22,0,9.802,0.058,10.729
			c0.059,1.218,0.174,3.017,0.58,3.538c0.638,0.928,2.436,1.972,8.468,1.972c4.698,0,8.874-1.565,11.948-4.466
			c2.668-2.493,4.002-7.191,4.002-11.716c0-6.264-2.727-10.266-4.814-12.354c-4.813-4.872-10.439-5.51-16.529-5.51
			c-0.986,0-2.61,0.174-3.074,0.348c-0.464,0.175-0.638,0.406-0.638,0.986V298.786z"/>
		<path d="M701.69,302.15c0,4.756,0,8.642,0.231,10.672c0.175,1.449,0.349,2.378,1.856,2.609c0.754,0.116,1.855,0.232,2.319,0.232
			c0.29,0,0.406,0.231,0.406,0.405c0,0.232-0.231,0.406-0.812,0.406c-2.842,0-6.148-0.174-6.38-0.174
			c-0.29,0-3.48,0.174-5.046,0.174c-0.522,0-0.813-0.116-0.813-0.406c0-0.174,0.116-0.405,0.406-0.405
			c0.464,0,1.102-0.116,1.566-0.232c0.985-0.231,1.159-1.16,1.334-2.609c0.231-2.03,0.29-5.916,0.29-10.672v-8.7
			c0-7.655,0-9.048-0.116-10.613c-0.116-1.683-0.522-2.437-1.624-2.668c-0.58-0.116-1.218-0.175-1.566-0.175
			c-0.231,0-0.405-0.231-0.405-0.405c0-0.29,0.231-0.406,0.812-0.406c1.682,0,4.872,0.116,5.162,0.116
			c0.231,0,3.538-0.116,5.104-0.116c0.58,0,0.813,0.116,0.813,0.406c0,0.174-0.232,0.405-0.406,0.405c-0.348,0-0.696,0-1.276,0.116
			c-1.392,0.29-1.682,0.986-1.798,2.727c-0.058,1.565-0.058,2.958-0.058,10.613V302.15z"/>
		<path d="M724.484,280.169c0.638-1.624,0.87-1.914,1.218-1.914c0.522,0,0.696,0.695,1.218,1.798
			c0.929,2.088,9.106,22.445,12.238,29.927c1.855,4.408,3.248,5.046,4.35,5.395c0.754,0.231,1.508,0.29,2.03,0.29
			c0.29,0,0.638,0.115,0.638,0.405s-0.58,0.406-1.16,0.406c-0.754,0-4.523,0-8.062-0.116c-0.986-0.058-1.798-0.058-1.798-0.348
			c0-0.232,0.116-0.232,0.348-0.348c0.29-0.116,0.813-0.522,0.464-1.334l-4.582-11.31c-0.115-0.232-0.174-0.29-0.464-0.29h-11.773
			c-0.232,0-0.406,0.115-0.522,0.405l-2.899,7.888c-0.464,1.219-0.754,2.437-0.754,3.307c0,0.985,0.87,1.334,1.74,1.334h0.464
			c0.405,0,0.521,0.174,0.521,0.405c0,0.29-0.29,0.406-0.754,0.406c-1.218,0-4.002-0.174-4.582-0.174
			c-0.521,0-3.073,0.174-5.162,0.174c-0.638,0-0.985-0.116-0.985-0.406c0-0.231,0.231-0.405,0.464-0.405
			c0.348,0,1.102-0.059,1.508-0.116c2.32-0.29,3.306-2.03,4.292-4.524L724.484,280.169z M730.168,300.7
			c0.232,0,0.232-0.116,0.174-0.348l-5.046-13.514c-0.29-0.755-0.58-0.755-0.87,0l-4.756,13.514c-0.058,0.231,0,0.348,0.175,0.348
			H730.168z"/>
		<path d="M745.712,274.253c-0.232-0.29-0.406-0.464-0.406-0.696c0-0.231,0.174-0.406,0.406-0.406c0.115,0,0.29,0.116,0.521,0.29
			c4.524,3.364,12.063,12.354,12.063,24.534c0,12.47-8.409,22.619-12.005,25.171c-0.232,0.174-0.465,0.348-0.639,0.348
			c-0.231,0-0.405-0.231-0.405-0.464c0-0.174,0.174-0.405,0.405-0.638c2.784-2.784,8.294-11.773,8.294-23.548
			C753.947,286.896,750.525,279.994,745.712,274.253z"/>
		<path d="M783.934,293.45c0-7.655,0-9.048-0.116-10.613c-0.116-1.683-0.406-2.494-2.088-2.727c-0.406-0.058-1.276-0.116-1.74-0.116
			c-0.174,0-0.406-0.231-0.406-0.405c0-0.29,0.232-0.406,0.813-0.406c2.319,0,5.51,0.116,5.916,0.116
			c1.102,0,4.93-0.116,7.249-0.116c6.555,0,8.874,2.03,9.744,2.784c1.16,1.044,2.552,3.248,2.552,5.916
			c0,7.075-5.336,11.773-13.165,11.773c-0.29,0-1.16,0-1.45-0.058c-0.232,0-0.522-0.232-0.522-0.465c0-0.405,0.29-0.521,1.334-0.521
			c5.51,0,9.454-3.48,9.454-7.946c0-1.624-0.174-4.813-2.9-7.481c-2.668-2.668-5.741-2.378-6.901-2.378
			c-0.87,0-2.32,0.231-2.842,0.348c-0.29,0.059-0.406,0.406-0.406,0.929v20.067c0,4.756,0,8.642,0.232,10.672
			c0.174,1.449,0.464,2.378,2.029,2.609c0.696,0.116,1.798,0.232,2.262,0.232c0.29,0,0.406,0.231,0.406,0.405
			c0,0.232-0.231,0.406-0.812,0.406c-2.784,0-6.148-0.174-6.38-0.174c-0.174,0-3.48,0.174-5.046,0.174
			c-0.522,0-0.813-0.116-0.813-0.406c0-0.174,0.116-0.405,0.406-0.405c0.464,0,1.102-0.116,1.566-0.232
			c0.985-0.231,1.102-1.16,1.334-2.609c0.29-2.03,0.29-5.916,0.29-10.672V293.45z"/>
		<path d="M814.21,293.45c0-7.655,0-9.048-0.116-10.613c-0.116-1.683-0.406-2.494-2.088-2.727c-0.406-0.058-1.276-0.116-1.74-0.116
			c-0.174,0-0.406-0.231-0.406-0.405c0-0.29,0.232-0.406,0.813-0.406c2.319,0,5.741,0.116,6.031,0.116
			c0.522,0,4.814-0.116,6.38-0.116c3.248,0,6.844,0.29,9.512,2.146c1.276,0.929,3.538,3.307,3.538,6.729
			c0,3.653-1.508,7.191-6.264,11.252c4.176,5.22,7.714,9.686,10.672,12.759c2.726,2.784,4.408,3.248,5.684,3.423
			c0.986,0.174,1.508,0.174,1.798,0.174s0.464,0.231,0.464,0.405c0,0.29-0.29,0.406-1.218,0.406h-3.189
			c-2.9,0-4.176-0.29-5.452-0.985c-2.204-1.16-4.06-3.538-6.96-7.25c-2.146-2.668-4.408-5.858-5.51-7.192
			c-0.232-0.231-0.348-0.29-0.696-0.29l-6.495-0.115c-0.232,0-0.349,0.115-0.349,0.405v1.16c0,4.756,0,8.584,0.232,10.614
			c0.174,1.449,0.464,2.378,2.029,2.609c0.696,0.116,1.799,0.232,2.263,0.232c0.348,0,0.405,0.231,0.405,0.405
			c0,0.232-0.231,0.406-0.812,0.406c-2.784,0-6.032-0.174-6.264-0.174c-0.059,0-3.48,0.174-5.046,0.174
			c-0.522,0-0.813-0.116-0.813-0.406c0-0.174,0.116-0.405,0.406-0.405c0.464,0,1.102-0.116,1.566-0.232
			c0.985-0.231,1.102-1.16,1.334-2.609c0.29-2.03,0.29-5.916,0.29-10.672V293.45z M818.617,297.626c0,0.29,0.116,0.464,0.349,0.639
			c0.754,0.405,3.363,0.754,5.625,0.754c1.219,0,2.61-0.059,3.828-0.87c1.74-1.16,3.074-3.771,3.074-7.54
			c0-6.147-3.364-9.686-8.815-9.686c-1.509,0-3.133,0.174-3.654,0.29c-0.232,0.115-0.406,0.29-0.406,0.58V297.626z"/>
		<path d="M854.925,302.15c0,4.756,0,8.642,0.231,10.672c0.175,1.449,0.349,2.378,1.856,2.609c0.754,0.116,1.855,0.232,2.319,0.232
			c0.29,0,0.406,0.231,0.406,0.405c0,0.232-0.231,0.406-0.812,0.406c-2.842,0-6.148-0.174-6.38-0.174
			c-0.29,0-3.48,0.174-5.046,0.174c-0.522,0-0.813-0.116-0.813-0.406c0-0.174,0.116-0.405,0.406-0.405
			c0.464,0,1.102-0.116,1.566-0.232c0.985-0.231,1.159-1.16,1.334-2.609c0.231-2.03,0.29-5.916,0.29-10.672v-8.7
			c0-7.655,0-9.048-0.116-10.613c-0.116-1.683-0.522-2.437-1.624-2.668c-0.58-0.116-1.218-0.175-1.566-0.175
			c-0.231,0-0.405-0.231-0.405-0.405c0-0.29,0.231-0.406,0.812-0.406c1.682,0,4.872,0.116,5.162,0.116
			c0.231,0,3.538-0.116,5.104-0.116c0.58,0,0.813,0.116,0.813,0.406c0,0.174-0.232,0.405-0.406,0.405c-0.348,0-0.696,0-1.276,0.116
			c-1.392,0.29-1.682,0.986-1.798,2.727c-0.058,1.565-0.058,2.958-0.058,10.613V302.15z"/>
		<path d="M881.141,310.038c2.958-6.612,9.628-23.432,10.729-26.97c0.232-0.754,0.464-1.45,0.464-1.855
			c0-0.406-0.174-0.87-0.695-1.044c-0.58-0.175-1.16-0.175-1.74-0.175c-0.29,0-0.58-0.174-0.58-0.405c0-0.29,0.348-0.406,1.16-0.406
			c2.029,0,4.35,0.116,4.987,0.116c0.29,0,2.494-0.116,4.002-0.116c0.522,0,0.813,0.116,0.813,0.348c0,0.232-0.174,0.464-0.58,0.464
			c-0.348,0-1.508,0-2.436,0.58c-0.696,0.464-1.509,1.16-2.843,4.524c-0.58,1.392-3.073,7.308-5.684,13.34
			c-3.132,7.191-5.394,12.527-6.554,14.963c-1.392,2.958-1.682,3.712-2.204,3.712c-0.58,0-0.928-0.638-1.914-3.016l-12.527-30.217
			c-1.16-2.784-1.856-3.307-3.538-3.712c-0.812-0.175-1.682-0.175-1.972-0.175s-0.406-0.289-0.406-0.464
			c0-0.29,0.522-0.348,1.334-0.348c2.436,0,5.336,0.116,5.974,0.116c0.522,0,2.784-0.116,4.756-0.116
			c0.929,0,1.393,0.116,1.393,0.348c0,0.232-0.175,0.464-0.522,0.464c-0.58,0-1.392,0.059-1.855,0.232
			c-0.522,0.232-0.58,0.522-0.58,0.87c0,0.638,0.638,2.146,1.392,4.118L881.141,310.038z"/>
		<path d="M908.749,280.169c0.638-1.624,0.87-1.914,1.218-1.914c0.522,0,0.696,0.695,1.218,1.798
			c0.929,2.088,9.106,22.445,12.238,29.927c1.855,4.408,3.248,5.046,4.35,5.395c0.754,0.231,1.508,0.29,2.03,0.29
			c0.29,0,0.638,0.115,0.638,0.405s-0.58,0.406-1.16,0.406c-0.754,0-4.523,0-8.062-0.116c-0.986-0.058-1.798-0.058-1.798-0.348
			c0-0.232,0.116-0.232,0.348-0.348c0.29-0.116,0.813-0.522,0.464-1.334l-4.582-11.31c-0.115-0.232-0.174-0.29-0.464-0.29h-11.773
			c-0.232,0-0.406,0.115-0.522,0.405l-2.899,7.888c-0.464,1.219-0.754,2.437-0.754,3.307c0,0.985,0.87,1.334,1.74,1.334h0.464
			c0.405,0,0.521,0.174,0.521,0.405c0,0.29-0.29,0.406-0.754,0.406c-1.218,0-4.002-0.174-4.582-0.174
			c-0.521,0-3.073,0.174-5.162,0.174c-0.638,0-0.985-0.116-0.985-0.406c0-0.231,0.231-0.405,0.464-0.405
			c0.348,0,1.102-0.059,1.508-0.116c2.32-0.29,3.306-2.03,4.292-4.524L908.749,280.169z M914.433,300.7
			c0.232,0,0.232-0.116,0.174-0.348l-5.046-13.514c-0.29-0.755-0.58-0.755-0.869,0l-4.757,13.514c-0.058,0.231,0,0.348,0.175,0.348
			H914.433z"/>
		<path d="M941.693,302.15c0,4.756,0,8.642,0.231,10.672c0.174,1.449,0.406,2.378,1.972,2.609c0.696,0.116,1.856,0.232,2.32,0.232
			c0.348,0,0.406,0.231,0.406,0.405c0,0.232-0.232,0.406-0.813,0.406c-2.783,0-6.031-0.174-6.321-0.174
			c-0.232,0-3.771,0.174-5.278,0.174c-0.58,0-0.812-0.116-0.812-0.406c0-0.174,0.115-0.348,0.405-0.348
			c0.465,0,1.044-0.116,1.509-0.231c1.044-0.232,1.334-1.219,1.508-2.668c0.231-2.03,0.231-5.916,0.231-10.672v-20.706l-7.365,0.116
			c-3.19,0.058-4.408,0.406-5.162,1.566c-0.58,0.869-0.638,1.218-0.813,1.565c-0.115,0.406-0.289,0.464-0.521,0.464
			c-0.116,0-0.348-0.116-0.348-0.405c0-0.522,0.985-4.931,1.102-5.336c0.058-0.29,0.348-0.929,0.522-0.929
			c0.348,0,0.869,0.406,2.262,0.58c1.45,0.174,3.422,0.232,4.002,0.232h19.255c1.683,0,2.843-0.116,3.654-0.232
			c0.754-0.116,1.218-0.231,1.45-0.231c0.231,0,0.231,0.29,0.231,0.58c0,1.508-0.174,5.046-0.174,5.625
			c0,0.406-0.231,0.639-0.464,0.639s-0.348-0.174-0.406-0.87l-0.058-0.522c-0.174-1.508-1.276-2.609-6.147-2.726l-6.38-0.116V302.15
			z"/>
		<path d="M963.036,293.45c0-7.655,0-9.048-0.116-10.613c-0.116-1.683-0.406-2.494-2.088-2.727c-0.406-0.058-1.276-0.116-1.74-0.116
			c-0.174,0-0.406-0.231-0.406-0.405c0-0.29,0.232-0.406,0.813-0.406c2.319,0,5.626,0.116,5.916,0.116c0.348,0,11.02,0.058,12.18,0
			c0.985-0.059,1.913-0.232,2.319-0.29c0.232-0.059,0.464-0.232,0.696-0.232c0.174,0,0.231,0.232,0.231,0.464
			c0,0.349-0.289,0.929-0.405,2.32c-0.059,0.464-0.174,2.668-0.29,3.248c-0.059,0.231-0.232,0.521-0.464,0.521
			c-0.29,0-0.406-0.231-0.406-0.638c0-0.348-0.058-1.16-0.29-1.74c-0.348-0.812-0.87-1.159-3.654-1.508
			c-0.87-0.116-6.785-0.174-7.365-0.174c-0.232,0-0.29,0.174-0.29,0.522v13.397c0,0.348,0,0.521,0.29,0.521
			c0.638,0,7.365,0,8.525-0.115c1.218-0.116,1.972-0.175,2.494-0.696c0.348-0.348,0.58-0.638,0.754-0.638s0.29,0.115,0.29,0.405
			s-0.29,1.103-0.406,2.727c-0.116,0.985-0.231,2.842-0.231,3.189c0,0.406-0.116,0.928-0.464,0.928
			c-0.232,0-0.349-0.174-0.349-0.464c0-0.464,0-0.985-0.231-1.624c-0.174-0.695-0.639-1.275-2.61-1.508
			c-1.392-0.174-6.844-0.231-7.714-0.231c-0.29,0-0.348,0.174-0.348,0.348v4.118c0,1.682-0.059,7.424,0,8.409
			c0.116,3.307,1.044,3.944,6.09,3.944c1.334,0,3.77,0,5.104-0.522c1.334-0.58,2.03-1.449,2.32-3.422
			c0.116-0.58,0.231-0.754,0.521-0.754s0.349,0.406,0.349,0.754c0,0.349-0.406,3.712-0.696,4.756
			c-0.348,1.276-0.87,1.276-2.842,1.276c-3.828,0-6.786-0.116-8.874-0.174c-2.146-0.116-3.479-0.116-4.233-0.116
			c-0.116,0-1.103,0-2.204,0.058c-0.986,0.059-2.146,0.116-2.958,0.116c-0.522,0-0.813-0.116-0.813-0.406
			c0-0.174,0.116-0.405,0.406-0.405c0.464,0,1.102-0.174,1.566-0.232c0.985-0.174,1.102-1.16,1.334-2.609
			c0.29-2.03,0.29-5.916,0.29-10.672V293.45z"/>
		<path d="M1012.684,302.266c0,7.25,0.116,10.208,1.044,11.078c0.812,0.813,2.784,1.16,6.786,1.16c2.668,0,4.93-0.058,6.147-1.508
			c0.638-0.754,1.044-1.798,1.218-2.784c0.059-0.348,0.232-0.638,0.522-0.638c0.231,0,0.348,0.231,0.348,0.754
			c0,0.521-0.348,3.479-0.754,4.93c-0.348,1.16-0.522,1.334-3.248,1.334c-3.654,0-6.496-0.058-8.874-0.174
			c-2.319-0.059-4.06-0.116-5.567-0.116c-0.232,0-1.103,0-2.088,0.058c-1.044,0.059-2.146,0.116-2.958,0.116
			c-0.522,0-0.813-0.116-0.813-0.406c0-0.174,0.116-0.405,0.406-0.405c0.464,0,1.102-0.116,1.566-0.232
			c0.985-0.231,1.102-1.16,1.334-2.609c0.29-2.03,0.29-5.916,0.29-10.672v-8.7c0-7.655,0-9.048-0.116-10.613
			c-0.116-1.683-0.406-2.494-2.088-2.727c-0.406-0.058-1.276-0.116-1.74-0.116c-0.174,0-0.406-0.231-0.406-0.405
			c0-0.29,0.232-0.406,0.813-0.406c2.319,0,5.51,0.116,5.8,0.116c0.231,0,4.06-0.116,5.626-0.116c0.521,0,0.812,0.116,0.812,0.406
			c0,0.174-0.231,0.348-0.406,0.348c-0.348,0-1.102,0.058-1.682,0.116c-1.508,0.29-1.798,1.044-1.914,2.784
			c-0.058,1.565-0.058,2.958-0.058,10.613V302.266z"/>
		<path d="M1040.813,302.15c0,4.756,0,8.642,0.231,10.672c0.175,1.449,0.349,2.378,1.856,2.609c0.754,0.116,1.855,0.232,2.319,0.232
			c0.29,0,0.406,0.231,0.406,0.405c0,0.232-0.231,0.406-0.812,0.406c-2.842,0-6.148-0.174-6.38-0.174
			c-0.29,0-3.48,0.174-5.046,0.174c-0.522,0-0.813-0.116-0.813-0.406c0-0.174,0.116-0.405,0.406-0.405
			c0.464,0,1.102-0.116,1.566-0.232c0.985-0.231,1.159-1.16,1.334-2.609c0.231-2.03,0.29-5.916,0.29-10.672v-8.7
			c0-7.655,0-9.048-0.116-10.613c-0.116-1.683-0.522-2.437-1.624-2.668c-0.58-0.116-1.218-0.175-1.566-0.175
			c-0.231,0-0.405-0.231-0.405-0.405c0-0.29,0.231-0.406,0.812-0.406c1.682,0,4.872,0.116,5.162,0.116
			c0.231,0,3.538-0.116,5.104-0.116c0.58,0,0.813,0.116,0.813,0.406c0,0.174-0.232,0.405-0.406,0.405c-0.348,0-0.696,0-1.276,0.116
			c-1.392,0.29-1.682,0.986-1.798,2.727c-0.058,1.565-0.058,2.958-0.058,10.613V302.15z"/>
		<path d="M1094.056,310.154c0.174,1.739,0.521,4.407,2.61,5.104c1.449,0.464,2.783,0.464,3.306,0.464
			c0.231,0,0.406,0.116,0.406,0.348c0,0.29-0.465,0.465-1.044,0.465c-1.16,0-6.845-0.059-8.7-0.232
			c-1.218-0.116-1.45-0.29-1.45-0.522c0-0.174,0.116-0.348,0.348-0.405c0.29-0.059,0.349-0.813,0.232-1.74l-2.436-25.056h-0.116
			l-12.296,25.172c-1.044,2.146-1.334,2.609-1.798,2.609s-0.754-0.464-1.74-2.262c-1.334-2.436-4.697-8.758-5.974-11.426
			c-1.508-3.132-5.626-11.426-6.496-13.455h-0.231l-1.973,22.271c-0.058,0.754-0.058,1.682-0.058,2.493
			c0,0.754,0.464,1.219,1.218,1.393c0.87,0.231,1.624,0.29,1.972,0.29c0.175,0,0.406,0.174,0.406,0.348
			c0,0.348-0.348,0.464-0.928,0.464c-1.914,0-4.35-0.174-4.756-0.174c-0.464,0-2.9,0.174-4.292,0.174
			c-0.521,0-0.87-0.116-0.87-0.464c0-0.174,0.232-0.348,0.522-0.348c0.405,0,0.754-0.059,1.508-0.174
			c1.682-0.29,1.74-2.089,1.972-3.944l3.712-32.189c0.059-0.521,0.29-0.87,0.58-0.87c0.348,0,0.754,0.174,1.044,0.754l15.428,30.624
			l14.848-30.565c0.232-0.464,0.464-0.813,0.812-0.813c0.349,0,0.639,0.406,0.755,1.334L1094.056,310.154z"/>
		<path d="M1111.166,302.15c0,4.756,0,8.642,0.231,10.672c0.175,1.449,0.349,2.378,1.856,2.609c0.754,0.116,1.855,0.232,2.319,0.232
			c0.29,0,0.406,0.231,0.406,0.405c0,0.232-0.231,0.406-0.812,0.406c-2.842,0-6.148-0.174-6.38-0.174
			c-0.29,0-3.48,0.174-5.046,0.174c-0.522,0-0.813-0.116-0.813-0.406c0-0.174,0.116-0.405,0.406-0.405
			c0.464,0,1.102-0.116,1.566-0.232c0.985-0.231,1.159-1.16,1.334-2.609c0.231-2.03,0.29-5.916,0.29-10.672v-8.7
			c0-7.655,0-9.048-0.116-10.613c-0.116-1.683-0.522-2.437-1.624-2.668c-0.58-0.116-1.218-0.175-1.566-0.175
			c-0.231,0-0.405-0.231-0.405-0.405c0-0.29,0.231-0.406,0.812-0.406c1.682,0,4.872,0.116,5.162,0.116
			c0.231,0,3.538-0.116,5.104-0.116c0.58,0,0.813,0.116,0.813,0.406c0,0.174-0.232,0.405-0.406,0.405c-0.348,0-0.696,0-1.276,0.116
			c-1.392,0.29-1.682,0.986-1.798,2.727c-0.058,1.565-0.058,2.958-0.058,10.613V302.15z"/>
		<path d="M1137.324,302.15c0,4.756,0,8.642,0.231,10.672c0.174,1.449,0.406,2.378,1.972,2.609c0.696,0.116,1.856,0.232,2.32,0.232
			c0.348,0,0.406,0.231,0.406,0.405c0,0.232-0.232,0.406-0.813,0.406c-2.783,0-6.031-0.174-6.321-0.174
			c-0.232,0-3.771,0.174-5.278,0.174c-0.58,0-0.812-0.116-0.812-0.406c0-0.174,0.115-0.348,0.405-0.348
			c0.465,0,1.044-0.116,1.509-0.231c1.044-0.232,1.334-1.219,1.508-2.668c0.231-2.03,0.231-5.916,0.231-10.672v-20.706l-7.365,0.116
			c-3.19,0.058-4.408,0.406-5.162,1.566c-0.58,0.869-0.638,1.218-0.813,1.565c-0.115,0.406-0.289,0.464-0.521,0.464
			c-0.116,0-0.348-0.116-0.348-0.405c0-0.522,0.985-4.931,1.102-5.336c0.058-0.29,0.348-0.929,0.522-0.929
			c0.348,0,0.869,0.406,2.262,0.58c1.45,0.174,3.422,0.232,4.002,0.232h19.255c1.683,0,2.843-0.116,3.654-0.232
			c0.754-0.116,1.218-0.231,1.45-0.231c0.231,0,0.231,0.29,0.231,0.58c0,1.508-0.174,5.046-0.174,5.625
			c0,0.406-0.231,0.639-0.464,0.639s-0.348-0.174-0.406-0.87l-0.058-0.522c-0.174-1.508-1.276-2.609-6.147-2.726l-6.38-0.116V302.15
			z"/>
		<path d="M1158.667,293.45c0-7.655,0-9.048-0.116-10.613c-0.116-1.683-0.406-2.494-2.088-2.727
			c-0.406-0.058-1.276-0.116-1.74-0.116c-0.174,0-0.406-0.231-0.406-0.405c0-0.29,0.232-0.406,0.813-0.406
			c2.319,0,5.626,0.116,5.916,0.116c0.348,0,11.02,0.058,12.18,0c0.985-0.059,1.913-0.232,2.319-0.29
			c0.232-0.059,0.464-0.232,0.696-0.232c0.174,0,0.231,0.232,0.231,0.464c0,0.349-0.289,0.929-0.405,2.32
			c-0.059,0.464-0.174,2.668-0.29,3.248c-0.059,0.231-0.232,0.521-0.464,0.521c-0.29,0-0.406-0.231-0.406-0.638
			c0-0.348-0.058-1.16-0.29-1.74c-0.348-0.812-0.87-1.159-3.654-1.508c-0.87-0.116-6.785-0.174-7.365-0.174
			c-0.232,0-0.29,0.174-0.29,0.522v13.397c0,0.348,0,0.521,0.29,0.521c0.638,0,7.365,0,8.525-0.115
			c1.218-0.116,1.972-0.175,2.494-0.696c0.348-0.348,0.58-0.638,0.754-0.638s0.29,0.115,0.29,0.405s-0.29,1.103-0.406,2.727
			c-0.116,0.985-0.231,2.842-0.231,3.189c0,0.406-0.116,0.928-0.464,0.928c-0.232,0-0.349-0.174-0.349-0.464
			c0-0.464,0-0.985-0.231-1.624c-0.174-0.695-0.639-1.275-2.61-1.508c-1.392-0.174-6.844-0.231-7.714-0.231
			c-0.29,0-0.348,0.174-0.348,0.348v4.118c0,1.682-0.059,7.424,0,8.409c0.116,3.307,1.044,3.944,6.09,3.944
			c1.334,0,3.77,0,5.104-0.522c1.334-0.58,2.03-1.449,2.32-3.422c0.116-0.58,0.231-0.754,0.521-0.754s0.349,0.406,0.349,0.754
			c0,0.349-0.406,3.712-0.696,4.756c-0.348,1.276-0.87,1.276-2.842,1.276c-3.828,0-6.786-0.116-8.874-0.174
			c-2.146-0.116-3.479-0.116-4.233-0.116c-0.116,0-1.103,0-2.204,0.058c-0.986,0.059-2.146,0.116-2.958,0.116
			c-0.522,0-0.813-0.116-0.813-0.406c0-0.174,0.116-0.405,0.406-0.405c0.464,0,1.102-0.174,1.566-0.232
			c0.985-0.174,1.102-1.16,1.334-2.609c0.29-2.03,0.29-5.916,0.29-10.672V293.45z"/>
		<path d="M1187.725,293.45c0-7.655,0-9.048-0.116-10.613c-0.116-1.683-0.406-2.494-2.088-2.727
			c-0.406-0.058-1.276-0.116-1.74-0.116c-0.174,0-0.406-0.231-0.406-0.405c0-0.29,0.232-0.406,0.813-0.406
			c2.319,0,5.626,0.116,5.916,0.116c0.579,0,3.827-0.116,6.844-0.116c5.104,0,14.441-0.464,20.474,5.626
			c2.552,2.552,4.987,6.67,4.987,12.527c0,6.206-2.668,10.962-5.51,13.862c-2.204,2.262-6.786,5.684-15.485,5.684
			c-2.204,0-4.93-0.174-7.134-0.29c-2.204-0.174-3.944-0.29-4.176-0.29c-0.116,0-1.044,0.058-2.089,0.058
			c-1.044,0.059-2.262,0.116-3.073,0.116c-0.522,0-0.813-0.116-0.813-0.406c0-0.174,0.116-0.405,0.406-0.405
			c0.464,0,1.102-0.116,1.566-0.232c0.985-0.231,1.102-1.16,1.334-2.609c0.29-2.03,0.29-5.916,0.29-10.672V293.45z
			 M1192.364,298.786c0,5.22,0,9.802,0.058,10.729c0.059,1.218,0.174,3.017,0.58,3.538c0.638,0.928,2.436,1.972,8.468,1.972
			c4.698,0,8.874-1.565,11.948-4.466c2.668-2.493,4.002-7.191,4.002-11.716c0-6.264-2.727-10.266-4.814-12.354
			c-4.813-4.872-10.439-5.51-16.529-5.51c-0.986,0-2.61,0.174-3.074,0.348c-0.464,0.175-0.638,0.406-0.638,0.986V298.786z"/>
	</g>
</g>
</svg>
